<?xml version="1.0" standalone="no"?>
<!DOCTYPE svg PUBLIC "-//W3C//DTD SVG 20010904//EN"
 "http://www.w3.org/TR/2001/REC-SVG-20010904/DTD/svg10.dtd">
<svg version="1.0" xmlns="http://www.w3.org/2000/svg"
 width="2048.000000pt" height="2048.000000pt" viewBox="0 0 2048.000000 2048.000000"
 preserveAspectRatio="xMidYMid meet">
<metadata>
Created by potrace 1.14, written by Peter Selinger 2001-2017
</metadata>
<g transform="translate(0.000000,2048.000000) scale(0.100000,-0.100000)"
fill="#000000" stroke="none">
<path d="M0 10240 l0 -10240 1096 0 1096 0 -7 38 c-4 20 -10 42 -14 47 -11 14
-21 45 -15 45 9 0 44 -84 44 -107 l0 -23 9140 0 9140 0 0 10240 0 10240
-10240 0 -10240 0 0 -10240z m11789 6473 c25 -27 53 -50 61 -52 52 -13 65 -11
140 28 81 41 106 50 95 31 -3 -5 -1 -10 4 -10 6 0 11 -7 11 -15 0 -14 27 -20
73 -16 20 3 22 -9 5 -28 -11 -11 -10 -13 2 -7 8 4 5 -1 -7 -11 -47 -39 -40
-43 157 -109 41 -14 84 -29 95 -33 11 -5 66 -26 122 -46 56 -20 110 -46 119
-56 13 -14 14 -18 3 -14 -8 3 -29 -4 -48 -16 -30 -18 -33 -24 -28 -55 3 -19
12 -47 20 -62 46 -87 75 -135 103 -164 17 -19 29 -39 27 -45 -3 -7 14 -29 36
-50 49 -46 133 -173 126 -191 -5 -13 30 -72 72 -126 18 -21 21 -32 13 -41 -8
-10 -4 -20 16 -39 30 -27 39 -57 21 -68 -7 -4 -1 -11 15 -19 15 -6 29 -18 32
-26 3 -8 1 -11 -4 -8 -6 3 -10 -1 -10 -9 0 -9 5 -16 11 -16 8 0 8 -4 0 -14 -9
-10 -6 -19 12 -37 23 -23 44 -75 26 -63 -15 9 -10 -9 12 -45 11 -18 18 -36 15
-39 -4 -3 -6 1 -6 8 0 7 -3 10 -7 7 -3 -4 1 -15 9 -24 8 -10 25 -49 38 -88 12
-38 28 -76 34 -84 8 -11 8 -13 -1 -7 -9 5 -11 2 -7 -8 3 -9 9 -14 13 -11 4 2
8 -1 8 -8 4 -52 19 -118 35 -150 12 -24 20 -63 21 -102 1 -35 5 -61 8 -59 4 2
9 -5 12 -16 3 -11 1 -18 -4 -14 -11 7 -12 -19 0 -32 4 -5 14 -31 21 -59 8 -27
16 -52 20 -55 3 -3 19 -32 34 -65 23 -49 26 -63 16 -79 -8 -13 -9 -21 -1 -25
5 -4 10 -15 10 -26 -1 -11 2 -42 5 -68 4 -31 2 -46 -4 -42 -6 3 -10 4 -10 1 0
-2 -3 -11 -6 -20 -4 -11 -1 -16 10 -16 11 0 16 -9 16 -29 0 -20 6 -32 19 -36
10 -3 27 -15 37 -28 16 -18 16 -19 2 -8 -11 8 -18 9 -18 3 0 -6 4 -14 10 -17
5 -3 25 -30 45 -59 19 -30 60 -80 91 -112 30 -33 72 -79 92 -104 35 -42 63
-69 156 -155 21 -19 49 -35 62 -35 29 0 100 -90 81 -102 -21 -13 6 -28 61 -35
28 -3 49 -10 46 -14 -3 -5 -15 -7 -27 -5 -12 2 -56 10 -97 16 -84 13 -141 31
-75 24 26 -3 9 5 -50 24 -49 15 -110 41 -135 57 -58 37 -195 152 -240 202
-143 154 -457 386 -666 491 -111 56 -150 65 -284 68 -69 2 -136 4 -150 5 -14
0 -56 -2 -95 -5 -38 -3 -215 -11 -392 -16 -182 -6 -358 -17 -403 -25 -77 -14
-196 -61 -233 -93 -9 -8 -19 -13 -22 -10 -9 9 33 54 69 73 67 36 30 50 -39 15
-22 -11 -50 -20 -63 -20 -13 0 -44 -16 -68 -36 -32 -27 -44 -32 -44 -20 0 9
-8 16 -20 16 -22 0 -47 -42 -74 -127 -18 -53 -30 -70 -40 -55 -8 13 24 132 42
160 13 20 13 22 -6 22 -41 0 -87 -95 -132 -269 -15 -59 -24 -45 -22 36 1 38
-2 84 -6 103 l-8 35 -17 -32 c-9 -18 -17 -37 -17 -43 0 -7 -7 -37 -16 -67 -21
-72 -36 -57 -38 36 0 39 -2 71 -3 71 -1 0 -9 -7 -17 -16 -12 -11 -16 -36 -16
-91 0 -101 -18 -201 -40 -223 -25 -25 -29 -43 -31 -137 -2 -80 10 -121 33
-107 5 3 15 0 23 -6 12 -10 15 -10 15 0 0 10 3 10 15 0 11 -9 19 -7 40 14 22
22 25 34 25 93 0 37 5 75 10 83 12 19 12 15 10 -91 -2 -100 10 -115 63 -77 18
13 39 24 47 24 8 1 66 12 129 24 63 12 174 25 245 30 110 7 228 28 255 45 14
8 289 43 391 50 58 3 152 14 210 22 75 12 181 16 375 17 318 1 438 -12 575
-59 52 -19 151 -43 219 -55 67 -12 130 -25 140 -30 9 -4 50 -15 91 -24 172
-35 320 -71 320 -78 0 -4 -6 -6 -12 -3 -7 2 -94 18 -193 35 -99 17 -187 34
-195 37 -20 8 -22 8 -180 32 -74 11 -154 27 -177 35 -87 32 -173 38 -448 31
-421 -9 -965 -46 -1195 -81 -178 -27 -417 -82 -601 -138 -283 -88 -304 -91
-609 -91 -303 0 -815 27 -940 50 -47 8 -89 15 -95 15 -6 0 -5 3 1 8 6 4 14 20
18 37 4 16 13 33 19 37 8 5 0 42 -30 130 -50 148 -63 198 -103 396 -16 85 -35
162 -40 173 -19 35 -28 20 -23 -38 3 -32 2 -55 -3 -51 -4 4 -13 3 -20 -3 -16
-13 -20 -6 -28 61 -8 61 -25 120 -35 120 -5 0 -12 -27 -16 -61 l-7 -61 -18 29
c-10 15 -30 42 -44 58 -20 24 -25 26 -26 12 0 -10 -7 -26 -16 -34 -14 -14 -20
-11 -68 36 -28 28 -59 51 -69 51 -21 0 -21 -4 -2 -33 27 -43 3 -48 -54 -12
-65 41 -223 92 -207 67 8 -13 -40 -9 -159 13 -84 15 -307 20 -332 7 -12 -7
-44 -5 -93 3 -83 14 -112 11 -83 -10 30 -22 12 -23 -77 -4 -47 10 -104 18
-127 19 -33 0 -41 3 -39 17 3 21 12 25 106 53 41 13 95 33 120 46 25 13 94 43
153 68 60 24 123 55 140 69 18 13 51 34 75 47 23 13 42 26 42 29 0 3 10 7 23
7 12 1 40 13 61 28 21 14 52 26 67 26 31 0 100 32 119 55 19 22 67 43 80 35 9
-5 9 -9 1 -14 -6 -4 -11 -2 -11 4 0 6 -5 8 -11 5 -6 -4 -8 -13 -5 -21 3 -8 -1
-17 -9 -20 -13 -5 -13 -8 0 -21 8 -8 21 -11 27 -7 7 4 4 -2 -6 -14 -27 -31 -4
-29 78 8 36 16 66 27 66 25 0 -2 33 8 73 22 71 27 74 27 382 28 295 2 316 3
434 28 68 15 168 34 221 42 54 8 123 22 153 33 29 10 75 19 100 21 42 2 48 0
57 -23 5 -14 14 -26 19 -26 5 0 11 -6 14 -14 4 -11 -20 -25 -89 -52 -51 -21
-92 -39 -90 -42 7 -6 139 35 205 64 95 42 199 113 381 259 239 191 401 357
525 540 83 123 252 479 374 788 52 133 92 197 122 197 10 0 27 16 40 40 25 44
36 47 100 25 41 -15 44 -14 63 5 11 11 22 20 24 20 3 0 25 -21 51 -47z m498
-79 l22 -6 -20 -17 c-13 -11 -33 -16 -50 -13 -33 5 -37 16 -11 31 20 12 29 13
59 5z m-1170 -236 c-3 -7 -5 -2 -5 12 0 14 2 19 5 13 2 -7 2 -19 0 -25z m-38
-148 c-13 -52 -27 -86 -32 -81 -5 5 3 45 18 96 15 47 29 84 32 81 3 -3 -5 -46
-18 -96z m-59 -204 c-61 -178 -124 -306 -206 -416 -23 -32 -53 -64 -65 -70
-16 -9 -10 4 24 51 83 117 168 295 251 524 6 15 9 16 15 6 6 -8 -2 -45 -19
-95z m-236 78 c13 -5 10 -17 -19 -75 -70 -139 -205 -321 -315 -427 -102 -98
-322 -232 -450 -275 -58 -19 -120 -31 -120 -23 0 13 55 58 88 72 19 8 48 25
66 39 17 14 66 54 109 88 155 124 174 140 296 260 68 67 142 147 165 177 22
30 58 72 81 92 22 21 49 47 59 58 22 23 20 22 40 14z m-3399 -1774 c-3 -5 -13
-10 -21 -10 -8 0 -32 -9 -54 -20 -47 -24 -78 -26 -35 -3 31 17 94 42 108 43 5
0 5 -4 2 -10z m-145 -54 c0 -6 -153 -86 -157 -82 -3 3 137 83 150 85 4 1 7 -1
7 -3z m-175 -96 c-3 -6 -21 -17 -38 -26 -36 -19 -31 -9 10 17 34 21 36 22 28
9z m4090 -120 c3 -6 -1 -7 -9 -4 -10 4 -16 1 -16 -7 0 -7 -3 -10 -6 -6 -7 7 4
27 16 27 5 0 12 -4 15 -10z m-39 -72 c5 -7 3 -8 -6 -3 -10 6 -12 4 -7 -7 6
-18 -1 -30 -14 -22 -5 3 -4 14 1 25 12 22 16 23 26 7z m-2891 -310 c183 -38
386 -93 770 -209 33 -10 89 -24 125 -31 36 -7 56 -14 44 -16 -25 -4 -192 37
-479 118 -260 73 -514 135 -622 150 -46 7 -83 14 -83 17 0 8 147 -9 245 -29z
m-570 -68 c310 -18 424 -34 647 -90 469 -119 725 -262 814 -455 33 -72 44
-161 45 -357 0 -195 -15 -315 -63 -513 -26 -104 -33 -124 -38 -100 -5 24 -7
16 -13 -36 -15 -141 -84 -398 -137 -516 -69 -152 -138 -197 -360 -237 -440
-80 -1263 -61 -1810 40 -106 20 -309 86 -365 119 -100 58 -149 139 -223 365
-88 270 -126 434 -163 705 -51 375 -14 772 83 889 73 88 208 161 315 169 l42
3 -22 -22 c-12 -11 -42 -31 -67 -44 -45 -22 -123 -81 -148 -110 -7 -8 -28 -39
-47 -68 -35 -52 -41 -75 -29 -106 6 -14 10 -14 39 4 43 27 62 18 70 -33 4 -23
12 -51 17 -61 10 -18 12 -17 24 12 16 39 42 42 49 5 76 -357 144 -599 182
-642 16 -17 34 -37 41 -46 7 -8 23 -15 36 -15 30 0 38 -11 71 -93 15 -37 29
-66 30 -65 2 2 -3 32 -10 68 -19 88 -20 86 22 115 59 39 67 35 58 -32 -4 -32
-10 -91 -14 -131 l-7 -74 40 -34 c43 -37 113 -74 140 -74 9 0 28 7 41 16 13 8
32 14 42 13 44 -6 80 13 118 62 l38 50 29 -33 30 -33 -26 50 c-46 93 -69 187
-82 337 l-6 76 48 35 c95 69 327 173 321 145 -1 -6 14 -11 33 -12 36 -2 70 17
70 40 0 12 48 44 65 44 3 0 -15 -39 -39 -87 -24 -49 -58 -131 -76 -183 -30
-85 -33 -107 -33 -205 -1 -93 3 -120 24 -176 51 -133 200 -310 285 -337 21 -7
82 -17 134 -24 79 -9 111 -8 189 5 172 29 278 99 403 267 75 101 87 126 100
221 13 92 0 224 -31 315 -10 29 -13 50 -8 47 20 -12 111 -163 160 -263 64
-134 66 -167 13 -271 -20 -41 -52 -89 -69 -108 -18 -19 -25 -30 -17 -25 56 32
105 72 149 123 l51 59 41 -9 c22 -5 50 -16 62 -23 40 -25 78 -29 93 -9 16 21
18 53 4 53 -9 0 -77 100 -87 129 -3 9 -15 26 -26 39 -11 12 -17 22 -13 22 4 0
-7 15 -24 33 -17 17 -43 52 -58 77 -75 128 -164 252 -220 307 -63 63 -88 81
-260 187 l-92 58 -123 14 c-67 8 -153 18 -192 23 -38 6 -99 13 -135 16 -36 4
-92 11 -124 16 -78 14 -392 13 -483 0 -39 -6 -106 -22 -150 -36 -43 -13 -87
-25 -98 -25 -11 0 -31 -8 -45 -17 -21 -15 -23 -15 -17 0 3 8 1 17 -5 19 -6 2
-10 17 -10 33 0 26 -26 69 -29 48 -1 -4 -4 6 -8 22 -5 21 -12 30 -25 28 -13
-1 -15 2 -7 10 11 11 16 47 7 47 -3 0 -22 -10 -42 -22 -21 -12 -35 -18 -32
-12 4 5 3 15 -1 22 -13 22 -61 -29 -64 -68 -1 -20 -10 -42 -22 -51 -10 -9 -24
-32 -30 -50 -7 -19 -17 -34 -23 -34 -17 0 -21 -8 -26 -63 -4 -39 -2 -52 8 -52
7 0 16 3 20 7 12 12 60 9 75 -5 18 -17 61 -12 85 11 11 9 26 17 34 17 7 0 -35
-48 -94 -106 -103 -101 -108 -104 -119 -84 -10 19 -13 20 -18 6 -4 -9 -4 -23
-1 -31 7 -17 -14 -75 -26 -75 -4 0 -15 30 -24 67 -10 37 -22 73 -28 80 -6 7
-7 13 -2 13 5 0 9 62 9 138 0 115 3 142 18 165 9 15 24 27 32 27 8 0 29 13 47
28 70 60 157 104 305 154 l98 33 280 0 c264 0 293 -2 505 -33 124 -18 281 -46
348 -62 68 -17 129 -27 134 -23 6 3 8 2 5 -4 -3 -5 26 -27 66 -48 289 -155
467 -326 580 -558 23 -48 15 -60 -15 -21 -25 31 -78 87 -78 81 0 -4 72 -145
88 -172 14 -24 43 -103 46 -127 1 -10 6 -21 11 -25 4 -5 4 -1 0 7 -7 12 -6 13
6 3 8 -6 16 -24 17 -39 2 -30 31 -69 42 -57 4 5 10 23 14 41 4 24 2 34 -9 38
-11 5 -12 11 -4 25 19 36 32 21 27 -30 -3 -28 -1 -56 3 -63 6 -8 9 5 9 33 0
25 3 82 6 125 7 78 7 79 -13 61 -19 -17 -20 -16 -20 38 0 64 21 96 25 37 5
-60 12 -50 12 16 0 59 -1 62 -25 62 -27 0 -28 4 -15 35 5 11 9 14 9 8 1 -19
19 -16 24 5 2 9 7 -14 12 -53 10 -86 -1 -361 -19 -473 -7 -46 -10 -80 -6 -75
4 4 12 49 19 98 7 50 16 120 21 157 22 152 7 357 -37 493 -36 112 -102 206
-189 265 -189 131 -584 251 -809 248 -72 -1 -228 13 -450 42 -44 6 -255 13
-470 16 -214 2 -414 7 -444 10 -48 5 -51 7 -34 19 18 13 157 31 293 38 139 8
521 6 675 -3z m5113 -105 c274 -24 760 -112 901 -162 117 -41 168 -100 223
-253 31 -85 34 -242 10 -435 -11 -88 -23 -191 -27 -230 -21 -228 -109 -687
-166 -865 -83 -257 -188 -329 -529 -360 -69 -6 -172 -15 -230 -21 -424 -38
-1113 -33 -1475 11 -413 51 -584 112 -673 238 -73 105 -149 264 -220 462 -63
177 -70 204 -75 295 -4 55 -16 142 -27 194 -12 52 -20 100 -18 108 2 8 27 -93
56 -224 55 -244 139 -518 191 -620 46 -92 127 -181 165 -183 5 0 1 9 -8 19
-28 31 -62 154 -110 393 -75 372 -116 696 -116 918 0 196 30 297 118 402 94
112 176 152 462 223 205 52 389 74 865 105 155 11 470 3 683 -15z m-7098 -50
c0 -9 -7 -30 -17 -48 -17 -33 -16 -59 13 -347 5 -47 3 -59 -16 -83 -25 -31
-38 -32 -112 -5 l-38 13 0 97 c0 85 -4 107 -30 173 -16 42 -30 84 -30 95 0 28
56 87 93 99 76 24 137 26 137 6z m8457 -11 c-3 -3 -12 -4 -19 -1 -8 3 -5 6 6
6 11 1 17 -2 13 -5z m188 -16 c7 -7 -1 -9 -25 -4 -19 3 -39 11 -45 17 -7 8 0
9 25 4 19 -4 40 -12 45 -17z m-69 -24 c21 -15 61 -46 88 -70 29 -27 58 -44 73
-44 13 0 22 -3 20 -7 -3 -5 7 -8 21 -9 42 -2 122 -44 163 -87 63 -64 82 -116
87 -236 4 -98 3 -107 -17 -125 -11 -11 -21 -25 -21 -33 0 -26 -27 -12 -95 49
-96 85 -110 106 -150 234 -19 61 -42 118 -52 125 -15 13 -16 11 -10 -16 12
-57 18 -210 9 -224 -8 -11 -36 -20 -147 -47 -19 -5 -20 -2 -14 98 7 117 -3
314 -18 344 -6 10 -13 31 -17 47 -6 24 -3 27 17 27 14 0 42 -12 63 -26z
m-5846 -85 c25 -10 92 -33 149 -50 104 -33 106 -34 183 -112 76 -76 144 -168
150 -203 7 -37 -20 -21 -77 44 -97 111 -196 183 -410 299 -95 51 -93 62 5 22z
m392 -144 c9 -15 8 -15 -13 -5 -12 7 -32 21 -43 32 -21 19 -21 19 13 5 18 -8
38 -22 43 -32z m-3853 -59 c6 -7 29 -16 51 -20 57 -9 119 -87 135 -171 5 -22
7 -44 6 -49 -3 -15 30 -106 40 -106 5 0 9 -9 9 -20 0 -11 5 -20 11 -20 5 0 7
-4 4 -10 -3 -5 0 -10 7 -10 18 0 166 -168 203 -231 28 -48 28 -48 11 -45 -18
2 -108 100 -191 206 -110 142 -236 260 -277 260 -24 0 -84 -94 -117 -185 -25
-67 -26 -79 -25 -280 0 -170 4 -235 22 -339 20 -113 49 -245 68 -303 5 -15 4
-15 -5 -3 -19 27 -13 -10 15 -85 14 -39 28 -78 31 -87 3 -10 9 -18 14 -18 5 0
9 -6 9 -13 0 -18 24 -67 33 -67 4 0 7 -9 7 -19 0 -11 5 -23 11 -27 8 -4 9 1 4
17 -5 18 -4 20 4 9 6 -8 8 -25 4 -37 -3 -14 -1 -23 6 -23 6 0 11 -9 11 -19 0
-11 5 -23 11 -27 8 -4 9 1 4 17 -5 18 -4 20 4 9 6 -8 8 -25 4 -37 -3 -13 -1
-23 4 -23 6 0 16 -18 23 -40 7 -22 16 -40 20 -40 3 0 26 -39 50 -87 23 -47 49
-93 56 -102 7 -9 28 -36 46 -60 18 -24 42 -45 53 -47 21 -3 77 -62 122 -129
50 -74 178 -240 217 -282 36 -40 66 -55 66 -34 0 4 18 5 40 1 29 -5 43 -3 51
6 6 8 15 14 20 14 12 0 45 33 58 59 22 40 12 118 -24 204 -6 14 -2 17 23 17
16 0 34 -6 40 -12 5 -7 22 -92 36 -188 15 -96 30 -177 33 -180 3 -3 3 13 0 35
-2 22 -10 87 -16 145 -33 290 -45 375 -76 538 -18 97 -51 260 -74 362 -66 304
-71 329 -96 485 -31 195 -87 647 -80 653 3 3 5 -4 5 -14 0 -11 4 -24 8 -29 5
-6 14 -30 21 -55 8 -25 18 -58 23 -75 15 -50 38 -187 38 -233 0 -35 4 -45 20
-49 11 -3 20 -9 20 -14 0 -5 7 -6 15 -3 8 4 15 1 15 -5 0 -6 11 -16 24 -22 14
-7 29 -27 36 -50 11 -32 17 -38 35 -33 23 6 33 -10 62 -96 8 -25 32 -85 52
-135 106 -255 128 -326 138 -450 9 -122 53 -324 84 -390 9 -19 28 -140 33
-215 4 -48 27 -153 38 -166 14 -19 20 -145 22 -419 1 -250 2 -264 29 -360 28
-104 64 -203 79 -220 12 -13 10 -55 -3 -55 -12 0 37 -89 95 -174 23 -32 48
-69 56 -81 45 -67 290 -321 441 -456 110 -99 330 -269 348 -269 4 0 16 -9 27
-21 10 -12 39 -32 64 -45 25 -13 52 -28 60 -34 16 -10 60 -32 100 -51 14 -6
32 -15 40 -20 54 -31 297 -155 470 -240 113 -56 233 -120 266 -144 34 -23 149
-85 255 -138 107 -52 239 -121 293 -153 93 -54 174 -120 162 -131 -11 -11
-159 57 -523 240 -210 105 -385 188 -388 185 -4 -3 18 -19 47 -35 68 -36 75
-57 94 -273 7 -91 16 -178 19 -195 8 -49 9 -228 1 -252 -10 -32 -18 -29 -53
21 -27 38 -36 69 -66 228 -20 103 -40 253 -47 343 l-12 161 -77 44 c-42 24
-188 101 -324 172 -565 292 -1062 628 -1258 851 -214 242 -318 425 -419 738
-35 107 -64 196 -66 198 -2 2 -38 -6 -82 -18 -106 -29 -153 -27 -215 7 -72 38
-138 123 -245 316 -51 91 -130 223 -176 294 -264 405 -443 761 -575 1144 -79
230 -86 282 -86 633 0 286 2 317 23 405 31 132 62 191 129 245 56 46 92 56
112 31z m9104 -81 c22 -100 33 -230 18 -221 -6 4 -11 19 -11 34 0 24 -19 157
-35 252 -11 62 12 10 28 -65z m-7413 65 c0 -5 -2 -10 -4 -10 -3 0 -8 5 -11 10
-3 6 -1 10 4 10 6 0 11 -4 11 -10z m-177 -30 c-3 -12 0 -20 7 -20 9 0 8 -6 -3
-18 -10 -10 -17 -23 -17 -28 0 -5 4 -3 9 5 7 11 12 4 19 -25 15 -57 19 -107 7
-103 -5 2 -10 18 -11 34 -2 46 -4 51 -13 36 -5 -7 -14 -10 -20 -7 -15 10 -14
99 2 115 10 11 9 12 -1 6 -11 -6 -12 -3 -2 14 13 26 30 19 23 -9z m417 15 c-7
-8 -16 -15 -21 -15 -5 0 -6 7 -3 15 4 8 13 15 21 15 13 0 13 -3 3 -15z m8468
-136 c164 -82 250 -259 288 -596 29 -261 8 -498 -65 -718 -45 -140 -74 -206
-143 -332 -37 -68 -55 -90 -66 -85 -10 3 -13 1 -8 -6 4 -7 -4 -22 -19 -36 -15
-14 -24 -29 -21 -35 3 -5 -3 -7 -14 -4 -14 4 -20 0 -20 -11 0 -9 -6 -13 -14
-10 -8 3 -17 0 -22 -7 -4 -7 -3 -10 4 -5 6 3 13 2 17 -4 3 -5 1 -10 -4 -10 -6
0 -11 -8 -11 -19 0 -10 -8 -25 -17 -32 -11 -10 -14 -10 -9 -1 11 18 -8 15 -34
-6 -12 -10 -23 -31 -24 -47 -2 -28 -11 -48 -35 -84 -7 -11 -13 -12 -24 -3 -11
9 -19 7 -37 -10 -13 -12 -31 -23 -39 -25 -12 -1 -11 2 3 13 11 8 14 14 7 14
-7 0 -9 5 -6 10 3 6 2 10 -4 10 -6 0 -8 7 -5 15 4 8 10 12 15 9 5 -3 8 -2 7 3
-1 4 3 17 9 29 10 17 9 21 -2 21 -8 0 -14 -3 -13 -6 2 -19 -3 -31 -11 -27 -5
3 -12 -4 -15 -17 -3 -12 -19 -37 -36 -56 -16 -18 -30 -37 -30 -41 0 -4 -11
-20 -25 -36 -14 -16 -25 -37 -25 -46 0 -10 -4 -18 -8 -18 -15 0 -39 -64 -62
-163 -19 -81 -35 -120 -92 -220 -89 -156 -139 -220 -211 -273 -75 -56 -154
-85 -248 -91 -71 -5 -82 -3 -140 25 -48 24 -78 31 -119 31 -30 0 -66 1 -79 3
-28 4 -21 17 -201 -342 -168 -332 -201 -382 -378 -564 -225 -230 -495 -424
-872 -627 -85 -45 -179 -98 -207 -116 l-53 -34 0 -358 c0 -374 -6 -445 -41
-489 -51 -66 -93 -34 -102 79 -28 318 -32 627 -11 721 l6 28 -78 -44 c-210
-115 -469 -240 -514 -246 -48 -7 -35 5 45 41 50 22 106 47 125 56 19 9 67 34
105 56 39 22 86 48 105 59 19 11 81 51 137 88 56 38 111 71 121 75 11 3 26 13
34 22 11 15 11 16 -4 10 -37 -14 -15 2 90 63 258 151 580 362 710 468 163 131
292 276 440 494 32 46 122 214 136 252 18 50 -29 -15 -89 -124 -36 -65 -72
-121 -81 -124 -8 -3 -12 -10 -9 -16 9 -15 -4 -30 -20 -23 -16 6 -20 43 -7 58
14 16 70 168 82 220 6 26 17 59 24 74 37 72 77 210 80 276 4 79 0 96 -19 89
-7 -3 -16 -1 -19 5 -5 7 -21 1 -46 -15 -21 -14 -44 -23 -50 -19 -6 4 -20 -1
-30 -10 -10 -9 -25 -17 -33 -19 -8 -1 -21 -7 -28 -12 -21 -16 -58 -23 -65 -13
-3 6 -15 4 -29 -5 -13 -9 -26 -12 -29 -7 -7 10 -93 -32 -166 -81 -30 -20 -67
-39 -82 -42 -22 -4 -28 0 -37 24 -19 55 -77 62 -135 16 -21 -18 -26 -29 -21
-45 5 -18 14 -21 56 -21 27 0 48 -3 48 -7 -3 -20 2 -24 17 -12 9 7 2 -8 -16
-34 -17 -26 -40 -52 -51 -57 -10 -6 -19 -19 -19 -29 0 -11 -15 -28 -35 -40
-19 -11 -35 -26 -35 -33 0 -7 -9 -19 -20 -26 -12 -7 -18 -17 -15 -23 4 -5 -5
-19 -20 -31 -17 -13 -25 -27 -22 -39 3 -13 -2 -19 -17 -21 -12 -2 -20 -9 -18
-18 2 -8 0 -12 -4 -8 -12 13 -32 -11 -27 -32 3 -11 1 -20 -4 -20 -12 0 -83
-68 -83 -79 0 -6 -13 -17 -28 -27 -16 -9 -50 -43 -77 -75 -27 -32 -54 -59 -60
-59 -11 0 -29 -15 -145 -123 -75 -69 -115 -103 -226 -195 -44 -37 -102 -85
-128 -106 -26 -21 -64 -51 -84 -66 -20 -15 -58 -49 -83 -76 -51 -55 -122 -115
-159 -134 -39 -20 -133 -83 -155 -103 -11 -10 -54 -39 -95 -63 -41 -24 -86
-54 -100 -66 -14 -13 -86 -63 -160 -112 -434 -288 -792 -426 -1103 -426 -237
0 -435 71 -690 245 -31 22 -103 71 -160 109 -69 47 -143 111 -227 197 -124
125 -235 247 -239 261 0 4 -30 34 -64 65 -67 61 -79 71 -142 117 -22 16 -100
88 -173 160 -72 72 -157 154 -187 181 -57 51 -174 169 -218 218 -13 15 -30 27
-37 27 -7 0 -45 33 -84 73 -40 39 -92 88 -116 107 -73 58 -97 86 -130 143 -17
31 -38 61 -45 67 -8 7 -15 16 -15 21 0 4 -16 43 -36 86 -45 99 -57 127 -80
183 -20 49 -55 109 -82 140 -23 28 -57 85 -83 143 -26 58 -75 103 -94 87 -7
-6 -16 -22 -19 -35 -6 -24 -26 -35 -26 -15 0 5 -7 7 -15 4 -11 -5 -15 1 -15
23 0 16 5 34 11 40 14 14 2 73 -14 73 -7 0 -18 9 -25 20 -16 27 -92 81 -103
74 -5 -3 -9 0 -9 6 0 7 -7 10 -15 6 -10 -3 -15 1 -15 12 -1 15 -2 15 -13 1
-12 -16 -42 -15 -32 2 4 5 0 6 -8 3 -8 -3 -19 2 -26 9 -9 12 -8 18 4 30 18 19
20 31 3 21 -10 -5 -10 -4 -1 6 6 7 9 18 7 25 -3 7 -1 16 5 20 6 3 11 17 11 30
0 13 5 27 12 31 8 5 9 2 5 -9 -4 -11 -1 -17 9 -17 8 0 12 5 9 10 -3 6 -2 10 2
10 5 0 9 16 10 35 2 53 33 107 78 133 42 24 41 24 220 6 l60 -6 -25 19 c-25
20 -183 90 -255 113 -22 7 -53 23 -70 35 -16 12 -48 30 -70 40 -35 16 -110 68
-125 86 -3 3 -10 8 -15 10 -34 13 -155 85 -155 91 0 5 12 2 28 -5 89 -46 377
-125 562 -156 301 -50 393 -56 840 -56 875 0 1152 62 1309 294 21 31 57 92 81
136 24 44 65 116 91 160 52 88 77 143 169 375 61 152 81 190 105 190 6 0 24
24 38 54 14 29 50 81 79 115 44 52 68 70 143 107 66 32 103 44 136 44 84 0
164 -56 271 -191 41 -51 21 -4 -30 70 -41 61 -115 136 -171 173 -43 29 0 21
67 -13 89 -44 191 -171 209 -259 3 -17 9 -30 14 -30 5 0 9 -14 9 -31 0 -17 4
-28 10 -24 6 4 10 -5 10 -19 0 -14 3 -26 8 -26 4 0 12 -15 18 -32 6 -18 41
-125 78 -238 126 -381 218 -622 269 -698 26 -40 128 -103 212 -132 130 -45
379 -89 660 -116 254 -24 875 -29 1184 -10 293 19 584 54 709 85 146 36 236
119 294 271 14 36 42 110 63 165 21 55 43 107 50 115 6 8 17 27 25 42 7 15 20
30 29 33 16 5 30 30 52 95 7 19 20 40 28 47 9 7 12 13 6 13 -6 0 -5 3 1 8 12
8 48 106 71 197 29 112 45 159 60 180 14 18 15 12 9 -65 -8 -94 1 -97 29 -11
10 29 26 62 36 72 11 11 19 29 19 42 0 12 6 31 14 42 7 11 23 52 35 91 15 52
32 84 61 115 39 43 40 44 56 24 24 -30 13 -128 -31 -275 -32 -109 -38 -145
-45 -280 -12 -221 -60 -490 -175 -985 -15 -60 -40 -173 -56 -250 -17 -77 -44
-178 -61 -225 -16 -47 -43 -121 -59 -165 -16 -44 -29 -96 -29 -115 l0 -34 17
24 c25 37 32 40 110 40 87 0 114 11 170 70 125 132 181 187 208 205 66 44 266
267 337 375 23 36 57 84 74 107 34 45 52 97 80 228 13 62 16 129 15 298 -1
283 7 310 86 259 12 -7 31 -29 43 -49 27 -46 38 -37 100 86 63 124 92 160 117
145 24 -15 35 -94 30 -217 -3 -78 -1 -97 9 -93 8 3 13 2 13 -2 -1 -4 -1 -18 0
-32 1 -19 11 -6 41 54 22 43 40 84 40 91 0 7 6 18 14 24 16 13 23 70 32 251 6
116 20 232 23 195 4 -36 11 -89 16 -110 2 -11 4 -51 5 -90 l2 -70 10 60 c9 58
0 153 -22 245 -4 19 -14 60 -20 90 -18 82 -67 194 -97 221 l-26 24 16 -25 c9
-13 17 -34 17 -45 0 -17 -5 -15 -31 14 l-30 35 -33 -18 c-41 -22 -184 -137
-251 -202 -27 -27 -117 -118 -198 -202 -168 -174 -254 -249 -269 -234 -13 13
-11 258 3 302 12 36 114 150 135 150 7 0 14 4 16 9 2 5 28 29 60 55 31 25 84
83 117 128 34 46 68 90 77 100 9 9 14 26 12 37 -3 21 -3 21 -40 -4 -74 -50
-36 -15 60 56 96 71 139 95 197 109 50 13 59 11 123 -21z m-5191 -9 c39 -11
89 -30 110 -43 44 -28 105 -93 126 -134 23 -45 59 -162 54 -176 -2 -6 -7 4
-12 23 -4 19 -13 42 -19 50 -7 8 -24 35 -38 60 -43 74 -97 114 -213 159 -100
38 -384 62 -485 40 -72 -15 -135 -51 -165 -97 -48 -73 -104 -261 -190 -637
-15 -66 -36 -149 -47 -185 -20 -64 -108 -244 -115 -236 -3 2 9 35 25 73 55
129 63 157 127 453 78 359 104 448 158 531 49 76 148 123 297 140 97 11 305
-1 387 -21z m-4349 -19 c5 -32 -40 -76 -96 -96 -66 -22 -72 -20 -72 23 0 50
11 64 67 84 65 23 97 20 101 -11z m1202 25 c0 -2 -7 -7 -16 -10 -8 -3 -12 -2
-9 4 6 10 25 14 25 6z m1209 -26 c60 -30 65 -42 42 -88 -31 -60 -70 -102 -95
-102 -32 0 -104 55 -112 85 -8 31 0 60 26 104 20 31 24 33 61 27 23 -4 58 -15
78 -26z m-1249 6 c0 -3 -33 -23 -73 -45 -40 -22 -82 -50 -92 -61 -18 -20 -35
-26 -35 -12 0 9 79 61 146 97 49 26 54 28 54 21z m-264 -170 c8 -32 -2 -46
-32 -46 -28 0 -29 2 -9 40 19 36 33 38 41 6z m2385 -173 c-12 -20 -14 -14 -5
12 4 9 9 14 11 11 3 -2 0 -13 -6 -23z m-31 -43 c0 -5 -5 -10 -11 -10 -5 0 -7
5 -4 10 3 6 8 10 11 10 2 0 4 -4 4 -10z m7 -925 c-53 -108 -115 -193 -159
-216 -14 -7 -10 2 12 33 18 24 49 72 69 108 21 36 58 99 81 140 64 109 61 67
-3 -65z m5724 -62 c35 -73 20 -153 -61 -329 -27 -58 -45 -82 -56 -71 -8 8 -12
42 -19 169 -8 140 7 221 49 263 33 33 60 23 87 -32z m-9797 21 c3 -8 2 -12 -4
-9 -6 3 -10 10 -10 16 0 14 7 11 14 -7z m120 -240 c3 -8 2 -12 -4 -9 -6 3 -10
10 -10 16 0 14 7 11 14 -7z m9906 -509 c-14 -17 -30 -20 -30 -6 0 5 8 12 18
14 9 3 19 5 21 6 2 0 -2 -6 -9 -14z m-8329 -233 c-7 -2 -18 1 -23 6 -8 8 -4 9
13 5 13 -4 18 -8 10 -11z m6644 -1151 c3 -5 2 -12 -3 -15 -5 -3 -9 1 -9 9 0
17 3 19 12 6z m-805 -1622 c407 -79 691 -181 774 -280 22 -26 26 -40 26 -97 0
-37 -6 -103 -14 -147 -8 -44 -20 -199 -25 -345 -11 -257 -24 -363 -51 -395
-32 -39 -83 48 -94 160 -3 39 -13 95 -21 125 -8 30 -15 71 -15 90 0 19 -9 60
-19 90 -17 53 -20 55 -52 54 -19 0 -42 -4 -51 -8 -12 -5 -18 -4 -18 3 0 28 91
174 167 268 46 56 79 104 75 107 -4 2 -43 -13 -86 -35 -43 -21 -88 -39 -101
-39 -12 0 -36 -5 -54 -11 -18 -6 -34 -9 -36 -7 -3 2 11 27 30 56 19 28 35 58
35 66 0 25 -55 80 -107 108 -26 15 -82 36 -123 47 -99 27 -307 78 -350 86 -19
3 -39 10 -44 16 -6 5 -23 9 -38 9 -15 0 -28 5 -28 10 0 6 -6 10 -14 10 -21 0
-46 40 -46 73 l0 28 63 -6 c34 -4 132 -20 217 -36z m-3350 -199 c8 -5 11 -10
5 -10 -5 0 -17 5 -25 10 -8 5 -10 10 -5 10 6 0 17 -5 25 -10z m-2480 -555 c0
-2 -10 -9 -22 -15 -22 -11 -22 -10 -4 4 21 17 26 19 26 11z m83 -41 c3 -4 -4
-15 -16 -25 -27 -23 -15 -25 19 -3 13 9 26 15 29 13 5 -5 -113 -78 -340 -211
-93 -55 -192 -114 -220 -132 -123 -79 -155 -97 -165 -91 -6 4 -9 2 -8 -4 2 -6
-37 -36 -87 -66 -49 -31 -80 -48 -67 -38 13 10 35 29 50 42 25 22 25 22 2 7
-14 -9 -38 -23 -54 -32 -26 -14 -28 -14 -23 -1 4 11 1 14 -8 10 -8 -3 -13 -9
-10 -13 3 -5 1 -11 -5 -15 -17 -10 -11 -25 8 -18 26 9 14 0 -53 -43 -33 -20
-54 -30 -46 -21 11 14 11 17 -1 17 -16 0 -38 -19 -38 -33 0 -4 6 -5 13 -2 6 4
1 -3 -13 -14 -31 -25 -47 -27 -29 -3 13 15 12 16 -3 3 -10 -7 -16 -17 -13 -21
5 -9 -55 -49 -251 -167 -176 -107 -356 -235 -429 -307 -51 -49 -57 -59 -42
-65 10 -4 19 -11 19 -16 0 -6 4 -16 10 -22 8 -10 4 -13 -16 -13 -16 0 -25 -4
-21 -10 13 -21 13 -49 1 -59 -10 -8 -29 1 -77 38 -35 27 -75 60 -88 75 -22 24
-23 28 -11 52 29 53 188 167 585 419 133 84 288 184 345 222 58 38 126 82 152
99 27 16 108 67 180 114 120 77 204 128 338 202 25 14 62 35 83 48 20 12 37
20 37 17 0 -2 -24 -19 -53 -37 -32 -19 -53 -39 -54 -51 -2 -25 15 -35 23 -14
6 13 8 14 15 3 7 -10 9 -11 9 0 0 7 4 11 9 7 12 -7 60 14 86 38 10 9 25 15 32
12 8 -2 30 11 50 30 21 19 40 35 44 35 9 0 6 -20 -4 -37 -13 -21 8 -15 28 7
17 18 17 20 2 14 -13 -5 -16 -2 -11 10 3 9 12 16 19 16 6 0 20 9 30 20 19 21
28 24 38 14z m6707 -1184 c0 -5 -5 -10 -11 -10 -5 0 -7 5 -4 10 3 6 8 10 11
10 2 0 4 -4 4 -10z m-51 -19 c-13 -11 -26 -18 -28 -15 -7 7 21 34 36 34 10 0
8 -6 -8 -19z m172 2 c6 -7 15 -11 19 -8 19 12 86 -20 127 -61 24 -24 48 -42
53 -39 5 3 10 -5 12 -17 2 -16 -6 -30 -26 -45 -16 -12 -33 -20 -37 -17 -5 3
-9 0 -9 -5 0 -6 -3 -10 -7 -10 -20 3 -34 -2 -28 -11 9 -15 -10 -12 -44 7 -36
21 -53 55 -45 88 8 31 -32 85 -62 85 -25 0 -57 27 -49 41 9 13 84 8 96 -8z
m942 -248 c744 -364 1220 -602 1389 -696 170 -94 342 -180 488 -244 88 -39
142 -74 137 -88 -2 -7 -23 -13 -48 -15 -24 -1 -91 -10 -149 -18 -172 -27 -171
-27 -300 70 -25 19 -106 67 -180 106 -74 40 -193 109 -265 155 -266 169 -695
393 -1080 565 -77 34 -178 80 -225 102 -147 69 -253 110 -300 117 l-45 6 65
53 65 54 63 -5 c57 -4 95 -20 385 -162z m-9548 87 c-6 -6 59 -52 73 -52 5 0
16 -8 23 -17 8 -10 -14 -1 -51 19 -65 36 -83 55 -55 55 8 0 13 -3 10 -5z m146
-99 c13 -15 12 -15 -8 -4 -24 12 -29 21 -14 21 5 0 15 -7 22 -17z m4604 -141
c-37 -35 -38 -36 -21 -7 20 33 47 58 55 50 3 -3 -12 -22 -34 -43z m3516 -485
c-20 -39 -32 -52 -39 -45 -8 8 -8 17 0 32 12 25 60 77 65 72 2 -2 -10 -28 -26
-59z m128 37 c25 -32 27 -67 6 -88 -18 -18 -78 -31 -100 -22 -14 5 -14 9 -1
33 7 16 21 45 29 66 19 44 38 47 66 11z m-79 -202 c251 -106 324 -140 590
-270 269 -132 374 -190 653 -365 236 -148 318 -195 466 -266 72 -36 144 -89
136 -102 -3 -4 -20 -2 -38 6 -18 7 -66 26 -107 42 -103 38 -271 137 -537 314
-269 180 -739 421 -1111 570 -158 63 -211 90 -242 124 l-25 28 25 -6 c14 -3
99 -37 190 -75z m-7410 -31 c0 -5 -7 -14 -15 -21 -8 -7 -15 -24 -16 -39 -1
-23 -2 -22 -11 9 -8 28 -7 36 8 47 21 15 34 17 34 4z m-236 -188 c-68 -125
-80 -144 -87 -136 -4 3 -7 18 -7 33 0 14 -7 35 -16 46 -11 13 -14 14 -11 3 6
-19 -21 -41 -107 -87 -33 -19 -81 -44 -105 -58 -24 -13 -48 -21 -54 -17 -5 3
-8 2 -5 -3 3 -5 -46 -38 -110 -74 -66 -37 -134 -84 -158 -109 l-43 -45 -11 28
c-5 15 -10 33 -10 41 0 25 -21 28 -44 6 -22 -21 -69 -88 -154 -221 -23 -36
-48 -72 -55 -80 -8 -8 -18 -30 -22 -47 -3 -18 -11 -35 -16 -38 -5 -4 -9 -20
-9 -36 0 -16 -13 -62 -29 -102 -41 -102 -151 -411 -151 -425 0 -18 -17 -23
-24 -6 -4 10 -2 13 7 8 9 -6 8 -4 -1 8 -9 12 -11 37 -7 94 3 43 8 81 11 86 3
4 7 16 9 27 3 17 50 134 91 228 29 65 10 71 -50 15 -22 -20 -104 -73 -181
-116 -77 -43 -182 -108 -233 -145 -52 -36 -156 -109 -232 -161 -76 -52 -162
-116 -193 -142 -30 -26 -57 -45 -61 -43 -3 3 -4 2 -1 -1 2 -4 -5 -20 -16 -36
-12 -16 -25 -44 -30 -63 -17 -60 -56 -139 -85 -172 -47 -51 -226 -175 -246
-170 -10 3 -21 1 -24 -4 -3 -5 -16 -9 -30 -9 -15 0 -24 -6 -24 -16 0 -8 -5
-12 -10 -9 -5 3 -10 21 -10 39 0 37 39 78 165 173 110 83 133 110 154 180 26
85 64 136 193 257 230 216 393 327 793 541 149 80 197 118 277 217 41 51 87
112 103 135 30 46 96 92 166 117 127 43 591 264 614 292 16 19 106 84 116 84
6 0 -11 -39 -37 -87z m9546 -670 c0 -10 -9 -29 -19 -43 -16 -20 -21 -22 -35
-11 -24 20 -20 38 12 55 35 20 42 20 42 -1z m-7390 -213 c0 -19 -37 -70 -51
-70 -4 0 -10 7 -13 16 -4 11 4 27 21 45 33 34 43 36 43 9z m24 -175 c20 -31
21 -85 2 -85 -13 0 -46 76 -46 106 0 19 26 6 44 -21z m6916 19 c0 -3 -36 -49
-79 -103 -44 -54 -109 -140 -147 -192 -81 -113 -73 -104 -80 -96 -3 3 8 34 25
68 17 34 31 67 31 73 0 14 137 169 193 218 40 35 57 45 57 32z m-5992 -111
c-8 -10 -73 -90 -143 -178 -120 -151 -169 -196 -196 -180 -15 10 -10 -11 6
-25 8 -7 15 -17 15 -23 0 -5 -24 15 -53 45 -29 31 -71 65 -92 77 l-40 22 48
-5 c43 -5 52 -3 76 22 15 15 34 38 44 51 30 44 28 16 -3 -40 -35 -63 -36 -71
-12 -62 15 6 15 5 3 -10 -9 -12 -10 -17 -2 -17 13 0 101 78 140 125 54 63 205
215 214 215 6 0 3 -8 -5 -17z m-808 -73 c0 -26 -69 -58 -82 -38 -20 32 4 57
55 58 20 0 27 -5 27 -20z m340 -261 c0 -16 -13 -10 -47 23 -46 44 -41 56 7 18
22 -17 40 -36 40 -41z m-131 47 c-10 -8 -159 -14 -154 -5 4 5 40 9 82 9 42 0
74 -2 72 -4z m7400 -331 c49 -24 128 -70 176 -102 48 -32 127 -83 177 -114
162 -102 192 -122 235 -156 46 -37 56 -56 48 -85 -6 -16 -10 -15 -48 16 -23
19 -103 72 -177 119 -74 46 -184 116 -245 155 -60 39 -142 90 -180 113 -64 38
-102 79 -87 94 8 8 5 9 101 -40z m-330 -144 c46 -29 159 -93 250 -143 272
-148 359 -197 383 -219 13 -11 47 -33 77 -47 30 -15 55 -31 55 -37 3 -42 -171
16 -624 210 -184 78 -345 145 -356 149 -12 4 -33 18 -46 31 l-25 25 -12 -28
c-7 -15 -42 -108 -78 -207 -77 -212 -84 -227 -101 -216 -13 8 8 77 88 286 44
117 75 177 122 238 37 47 52 48 44 3 -5 -25 -2 -39 10 -51 24 -24 258 -136
399 -190 66 -26 142 -59 170 -73 65 -34 105 -52 105 -47 0 8 -165 94 -270 141
-137 62 -264 138 -339 205 -49 44 -61 60 -61 85 0 17 3 34 7 38 4 3 32 -18 62
-47 31 -30 94 -77 140 -106z m1487 126 c-16 -12 -64 -48 -107 -79 -79 -60
-228 -220 -339 -366 -42 -56 -65 -80 -71 -71 -12 21 9 59 80 143 164 194 262
286 389 362 62 38 93 45 48 11z m-8302 -84 c-4 -16 -12 -32 -19 -38 -6 -5 -10
-15 -8 -21 2 -6 -4 -17 -12 -24 -14 -12 -18 -11 -25 0 -6 9 -1 19 15 31 12 10
25 32 28 49 4 16 11 30 17 30 6 0 8 -11 4 -27z m-5084 -18 c-7 -8 -9 -15 -4
-15 4 0 3 -5 -4 -12 -7 -7 -12 -17 -12 -22 0 -6 5 -4 10 4 5 8 10 10 10 5 0
-20 -60 -76 -78 -73 -32 6 -26 47 13 84 20 19 40 32 45 29 5 -3 11 -1 15 5 3
5 9 10 12 10 3 0 0 -7 -7 -15z m4668 -77 c15 -6 22 -12 15 -15 -21 -8 -53 17
-52 40 1 18 2 18 6 4 3 -10 17 -23 31 -29z m250 5 c-15 -2 -42 -2 -60 0 -18 2
-6 4 27 4 33 0 48 -2 33 -4z m-4944 -155 c-3 -24 -9 -58 -15 -75 -6 -18 -8
-37 -5 -42 11 -18 -22 -99 -89 -216 -95 -166 -116 -212 -165 -355 -47 -139
-124 -310 -139 -310 -20 0 -22 21 -7 100 9 44 13 86 10 94 -3 8 2 49 11 90 24
108 7 127 -45 51 -33 -49 -80 -99 -86 -93 -2 3 12 27 30 55 19 29 31 54 28 57
-3 3 0 6 6 6 7 0 12 7 12 16 0 30 127 237 213 347 48 62 108 139 132 172 24
33 58 79 75 103 17 23 32 42 34 42 3 0 2 -19 0 -42z m-96 -23 c-3 -3 -9 2 -12
12 -6 14 -5 15 5 6 7 -7 10 -15 7 -18z m13393 -115 c31 0 80 -84 161 -277 16
-40 34 -73 38 -73 5 0 -7 44 -25 98 -19 53 -35 104 -35 112 0 8 29 -34 64 -94
49 -82 69 -127 81 -185 18 -78 39 -136 194 -540 50 -129 89 -237 86 -239 -4
-4 -35 63 -35 77 0 3 -8 15 -16 26 -16 19 -16 19 -9 -5 l6 -25 -20 25 c-12 14
-30 44 -42 68 -12 24 -23 42 -24 40 -2 -2 46 -151 106 -331 106 -321 131 -382
286 -692 25 -49 58 -109 74 -132 34 -49 36 -57 9 -43 -63 34 -265 468 -424
910 -155 434 -253 694 -339 900 -134 321 -165 404 -158 415 3 6 7 0 9 -12 2
-13 8 -23 13 -23z m-710 -172 c0 -10 2 -10 6 0 2 6 18 12 35 12 29 0 30 -1 16
-17 -9 -10 -32 -49 -53 -88 -40 -77 -57 -100 -48 -66 3 12 1 21 -6 21 -21 0
-11 19 35 67 42 43 44 47 26 54 -23 9 -39 29 -23 29 6 0 11 -6 12 -12z m1029
-199 c0 -5 -7 -9 -15 -9 -8 0 -15 7 -15 15 0 9 6 12 15 9 8 -4 15 -10 15 -15z
m400 -113 c119 11 161 -19 78 -55 -59 -26 -76 -48 -83 -111 -5 -41 -3 -60 9
-75 15 -19 16 -19 47 -2 39 22 46 17 24 -17 -10 -14 -15 -33 -11 -41 8 -21
-82 43 -100 71 -11 16 -84 225 -84 240 0 2 12 -1 26 -6 14 -6 56 -7 94 -4z
m-11421 -39 c210 -18 247 -26 279 -60 46 -49 134 -281 148 -389 9 -72 -2 -59
-76 92 -54 109 -63 122 -75 107 -7 -9 -19 -17 -27 -17 -23 0 -41 -27 -40 -59
0 -15 15 -51 32 -80 34 -59 33 -79 -8 -103 -38 -23 -49 -63 -62 -228 -25 -315
-30 -369 -40 -445 -18 -141 -39 -221 -63 -243 -21 -19 -38 -20 -549 -27 -289
-4 -536 -4 -547 0 -34 10 -24 32 17 39 39 7 292 7 303 0 11 -6 462 15 541 26
82 11 144 35 153 58 16 41 55 274 69 412 9 85 21 201 27 258 6 57 8 106 5 109
-3 4 -104 0 -223 -7 -120 -7 -418 -16 -663 -20 -457 -7 -656 -22 -688 -54 -9
-9 -20 -91 -33 -257 -10 -134 -26 -295 -35 -358 -15 -105 -15 -116 0 -126 8
-7 12 -15 8 -19 -3 -4 -7 -14 -7 -23 0 -11 -24 -23 -75 -40 -41 -13 -77 -28
-80 -32 -3 -4 -17 -10 -32 -13 -26 -5 -28 -3 -28 29 0 19 7 64 15 101 8 37 26
144 40 237 59 390 97 534 154 594 36 37 40 48 56 138 29 174 38 195 107 258
124 112 213 143 458 155 224 12 723 4 939 -13z m-3141 -639 c9 -9 12 -9 12 3
0 11 2 12 9 0 9 -14 4 -33 -59 -216 -23 -66 -43 -134 -45 -152 -2 -17 -15 -55
-29 -83 -37 -74 -157 -227 -188 -240 -36 -16 -68 -5 -63 22 7 35 -16 47 -79
41 -31 -3 -56 -9 -56 -14 0 -4 -20 -11 -45 -15 -25 -3 -45 -10 -45 -15 0 -5
-5 -9 -12 -9 -6 0 -20 -8 -31 -17 -20 -17 -20 -17 -13 1 7 20 7 20 -15 0 -16
-13 -12 -3 12 30 19 27 89 101 157 165 119 112 225 231 251 280 7 12 32 42 54
65 23 22 67 69 98 104 58 65 67 70 87 50z m2342 7 c0 -9 -51 -25 -61 -19 -17
10 1 24 32 24 16 0 29 -2 29 -5z m130 -51 c21 -60 12 -84 -29 -84 -33 0 -44
11 -61 63 -13 43 -4 63 33 70 35 7 38 4 57 -49z m7488 41 c11 -10 -81 -8 -118
2 -42 11 -40 12 35 6 44 -3 81 -7 83 -8z m-10228 -146 c0 -6 -4 -7 -10 -4 -5
3 -10 11 -10 16 0 6 5 7 10 4 6 -3 10 -11 10 -16z m2366 -29 c5 -33 5 -34 -10
-16 -9 11 -16 31 -16 45 0 35 18 14 26 -29z m8484 -546 c31 -26 60 -72 60 -95
0 -6 -10 1 -22 16 -25 32 -75 55 -120 55 l-33 0 3 -50 c3 -39 1 -50 -10 -48
-30 6 -37 58 -17 117 10 29 14 31 59 31 38 0 55 -6 80 -26z m-11256 -130 c3
-8 2 -12 -4 -9 -6 3 -10 10 -10 16 0 14 7 11 14 -7z m11292 -51 c-10 -10 -19
5 -10 18 6 11 8 11 12 0 2 -7 1 -15 -2 -18z m-11252 -59 c3 -8 2 -12 -4 -9 -6
3 -10 10 -10 16 0 14 7 11 14 -7z"/>
<path d="M12566 16327 c3 -10 9 -15 12 -12 3 3 0 11 -7 18 -10 9 -11 8 -5 -6z"/>
<path d="M13010 15560 c0 -5 5 -10 11 -10 5 0 7 5 4 10 -3 6 -8 10 -11 10 -2
0 -4 -4 -4 -10z"/>
<path d="M9735 14810 l-90 -6 85 -1 c47 0 99 3 115 7 36 9 24 9 -110 0z"/>
<path d="M11003 16055 c-3 -9 -3 -18 -1 -21 3 -3 8 4 11 16 6 23 -1 27 -10 5z"/>
<path d="M6051 13138 c-1 -36 25 -172 39 -197 6 -11 17 -106 25 -210 29 -372
125 -835 207 -994 56 -111 150 -193 293 -257 58 -26 167 -61 173 -56 2 2 -21
12 -50 21 -150 50 -293 173 -347 301 -89 212 -164 561 -164 769 0 159 1 167
23 152 23 -14 70 -189 70 -259 0 -50 29 -152 59 -207 7 -13 17 -79 22 -145 13
-181 18 -209 35 -202 8 3 14 1 14 -5 0 -18 31 20 33 40 0 11 4 18 8 15 38 -23
-4 212 -77 439 -25 77 -61 214 -80 305 -44 215 -61 272 -79 272 -17 0 -30 -59
-21 -95 5 -18 2 -25 -8 -25 -8 0 -18 5 -22 12 -5 8 -10 6 -14 -7 -5 -15 -9
-11 -14 19 -4 22 -16 46 -27 55 -12 10 -31 55 -48 116 -48 171 -49 174 -50
143z"/>
<path d="M7298 12821 c-67 -38 -112 -81 -100 -93 13 -13 152 86 152 108 0 8
-1 14 -2 13 -2 -1 -24 -13 -50 -28z"/>
<path d="M7568 11993 c7 -3 16 -2 19 1 4 3 -2 6 -13 5 -11 0 -14 -3 -6 -6z"/>
<path d="M7610 11980 c8 -5 29 -9 45 -9 29 1 29 1 5 9 -14 4 -34 8 -45 9 -16
1 -17 -1 -5 -9z"/>
<path d="M7250 11884 c0 -8 149 -74 169 -74 43 0 29 20 -26 35 -32 9 -65 19
-73 22 -37 13 -70 21 -70 17z"/>
<path d="M11595 13440 c-237 -16 -549 -104 -721 -205 -168 -99 -230 -249 -203
-495 6 -52 12 -97 15 -99 2 -2 3 63 2 145 -2 200 17 262 104 332 9 7 63 22
120 33 129 24 169 33 238 52 236 65 372 113 433 153 35 23 54 26 185 34 194
12 638 12 682 0 19 -5 150 -14 290 -20 432 -18 466 -23 603 -86 181 -85 252
-134 299 -206 16 -27 34 -46 38 -43 5 3 11 -5 13 -17 4 -22 4 -22 6 2 0 14 -4
52 -10 85 -6 33 -12 67 -12 76 -1 9 -6 15 -13 12 -6 -2 -14 4 -18 13 -11 28 1
27 33 -2 22 -19 38 -49 54 -98 20 -64 22 -90 21 -257 -1 -113 -6 -194 -13
-205 -6 -11 -11 -13 -11 -6 0 7 -4 11 -9 8 -5 -3 -9 28 -9 69 0 41 4 75 8 75
5 0 7 15 5 33 -6 48 -23 114 -24 97 -1 -13 -2 -13 -11 0 -8 13 -10 12 -10 -2
0 -10 -7 -18 -15 -18 -9 0 -15 -9 -15 -25 0 -36 29 -140 40 -143 6 -2 10 -8
10 -13 0 -4 -6 -6 -12 -4 -23 9 -9 -90 15 -116 19 -21 22 -34 20 -104 -1 -44
-7 -81 -13 -83 -5 -2 -10 -21 -10 -42 0 -50 -17 -136 -36 -177 -8 -17 -14 -37
-14 -44 0 -21 -42 -183 -50 -194 -4 -5 -13 -35 -20 -65 -7 -30 -30 -107 -51
-170 -20 -63 -39 -129 -42 -146 -5 -32 -26 -71 -62 -112 -54 -63 -232 -145
-376 -173 -35 -7 -58 -14 -52 -16 25 -9 270 49 330 78 158 75 298 271 346 485
16 68 54 281 83 459 30 184 44 336 50 545 6 205 5 218 -16 273 -12 31 -38 78
-59 105 -65 81 -148 114 -424 166 -220 41 -302 46 -812 50 -269 3 -555 7 -635
9 -80 3 -199 2 -265 -3z"/>
<path d="M12360 13140 c-10 -7 -62 -9 -165 -5 -214 8 -457 -14 -665 -60 -186
-41 -234 -59 -272 -101 -14 -16 -55 -60 -90 -99 -190 -208 -299 -368 -270
-397 17 -17 228 183 218 207 -8 21 416 225 466 225 6 0 7 -8 4 -17 -4 -9 17 6
45 32 81 76 77 48 -14 -96 -31 -48 -86 -220 -98 -304 -24 -168 8 -288 115
-438 122 -170 239 -229 486 -243 212 -13 306 21 430 153 171 182 230 372 186
599 -12 67 -12 70 5 69 10 -1 22 -4 25 -8 4 -4 15 -7 23 -7 9 0 24 -8 33 -19
8 -10 20 -20 25 -22 15 -6 101 -127 109 -152 3 -12 12 -35 19 -52 36 -86 38
-151 10 -241 -6 -16 -4 -16 13 4 20 22 72 31 72 12 0 -12 57 -2 90 17 14 7 45
29 70 48 76 59 83 64 145 103 33 22 80 61 105 87 72 76 76 79 96 91 17 10 14
17 -50 88 -37 42 -94 96 -125 120 -31 24 -65 54 -76 66 -35 39 -176 142 -260
190 -136 77 -203 101 -370 134 -106 21 -315 31 -335 16z m-155 -205 c54 -53
18 -186 -45 -170 -42 10 -120 73 -120 96 0 12 17 39 39 60 47 47 89 52 126 14z
m-294 -98 c-6 -15 -17 -27 -26 -27 -21 0 -19 12 7 45 25 31 34 22 19 -18z"/>
<path d="M11535 12848 c-11 -6 -42 -32 -70 -57 -36 -34 -59 -48 -84 -50 -52
-4 -69 -13 -153 -80 -146 -115 -240 -255 -221 -329 l6 -25 16 22 c22 29 101
42 101 18 0 -21 -38 -47 -68 -47 -21 0 -23 -2 -11 -16 20 -25 65 -44 102 -44
58 0 104 63 172 235 50 126 82 180 164 275 92 106 103 130 46 98z m-325 -283
c-11 -13 -10 -14 4 -9 21 8 21 -4 -1 -28 -9 -10 -28 -47 -43 -81 l-26 -62 -47
-3 c-40 -3 -47 0 -47 15 0 18 148 183 164 183 5 0 3 -7 -4 -15z"/>
<path d="M11625 11972 c14 -15 127 -63 120 -51 -7 11 -70 43 -105 54 -17 5
-22 4 -15 -3z"/>
<path d="M15506 12006 c-4 -43 -5 -80 -2 -83 6 -6 19 120 14 143 -2 10 -7 -16
-12 -60z"/>
<path d="M15475 11828 c-11 -46 -27 -105 -37 -132 -21 -59 -18 -72 5 -19 32
78 69 233 55 233 -3 0 -13 -37 -23 -82z"/>
<path d="M15317 11750 c-3 -8 -8 -30 -11 -49 -4 -30 -3 -32 10 -19 10 10 14
28 12 49 -3 22 -6 28 -11 19z"/>
<path d="M15401 11605 c-25 -63 -66 -135 -149 -259 -48 -71 -91 -136 -97 -145
-5 -9 -20 -29 -33 -45 -13 -16 -21 -35 -18 -42 3 -7 -2 -18 -9 -24 -12 -10
-12 -17 -3 -34 10 -18 9 -19 -4 -8 -13 10 -16 9 -21 -8 -6 -23 -3 -24 23 -10
13 7 17 18 14 36 -3 14 -1 23 4 20 5 -3 9 4 8 17 -1 13 4 21 12 20 6 -2 12 4
12 13 0 8 4 13 9 10 5 -3 15 2 22 11 12 14 12 16 -1 9 -8 -4 -5 1 8 10 12 9
22 25 22 36 0 10 5 16 10 13 6 -3 10 3 10 13 0 11 7 25 15 32 8 7 21 24 28 39
8 14 37 64 64 111 57 100 96 187 90 203 -3 7 -10 -1 -16 -18z"/>
<path d="M10625 11303 c10 -16 35 -43 57 -61 21 -19 38 -40 38 -48 0 -27 67
-89 110 -102 23 -7 43 -12 44 -10 28 47 26 55 -27 90 -126 84 -174 118 -192
137 -10 12 -25 21 -33 21 -12 0 -11 -5 3 -27z"/>
<path d="M9051 11173 c-101 -102 -182 -241 -211 -363 -19 -78 -17 -188 4 -232
62 -131 184 -189 517 -248 63 -11 127 -46 234 -125 98 -74 140 -95 182 -95 18
0 72 29 153 81 260 171 305 186 482 169 128 -12 186 -8 231 19 63 36 124 173
133 301 l4 65 -19 -40 c-11 -22 -20 -45 -20 -51 -2 -26 -45 -46 -132 -64 -107
-22 -218 -25 -505 -10 -196 10 -278 22 -327 47 -16 8 -56 19 -90 24 -34 6 -75
16 -92 24 -16 8 -44 16 -61 18 -43 7 -72 23 -125 72 -56 52 -115 91 -152 99
-23 6 -34 1 -63 -28 -19 -19 -34 -41 -34 -50 0 -9 21 -39 47 -67 37 -39 44
-52 33 -59 -15 -9 -56 8 -106 46 -17 13 -36 24 -42 24 -23 0 -79 60 -92 98
-11 35 -10 48 9 110 11 38 37 92 56 118 19 27 42 59 51 72 12 16 13 26 6 35
-6 7 -9 25 -6 40 2 15 2 27 -2 27 -3 0 -31 -26 -63 -57z"/>
<path d="M13540 11027 c-3 -3 -17 -7 -30 -10 -14 -2 -38 -10 -55 -17 -16 -7
-49 -21 -72 -31 -24 -11 -48 -19 -53 -19 -6 0 -21 -9 -32 -20 -20 -18 -111
-51 -180 -65 -16 -3 -28 -10 -28 -17 0 -14 165 -4 235 15 111 31 231 112 223
152 -1 9 -5 14 -8 12z"/>
<path d="M8124 10188 c-80 -50 -146 -126 -190 -221 -25 -54 -23 -63 16 -122
115 -174 116 -176 75 -215 -14 -13 -25 -27 -25 -32 0 -29 141 96 160 142 7 17
17 30 24 30 6 0 67 -38 136 -83 120 -81 213 -127 227 -114 3 4 -2 16 -12 27
-10 11 -16 22 -14 24 2 2 58 -12 124 -30 301 -86 429 -118 662 -163 54 -11
148 -35 208 -54 174 -55 220 -62 328 -47 51 6 162 25 247 40 174 33 267 48
520 85 201 30 397 73 555 121 137 42 139 42 132 4 -8 -38 18 -54 74 -45 56 10
98 42 136 105 38 63 44 130 17 183 -46 88 -163 207 -205 207 -42 0 -211 -90
-297 -158 -64 -51 -141 -101 -207 -137 -92 -48 -109 -59 -118 -72 -4 -7 -17
-13 -27 -13 -23 0 -35 -16 -18 -23 7 -2 -9 -8 -35 -12 -54 -8 -150 -1 -277 21
-120 21 -341 29 -415 15 -33 -6 -90 -27 -126 -46 l-66 -34 -21 28 c-43 59
-244 105 -497 116 -193 8 -347 29 -404 57 -25 12 -48 24 -51 27 -3 4 -23 18
-45 33 -58 38 -80 56 -304 251 -36 31 -89 69 -117 82 -60 30 -140 41 -170 23z"/>
<path d="M9440 9032 c0 -4 26 -21 58 -37 101 -53 118 -82 62 -107 -29 -13 -36
-30 -24 -63 9 -22 68 -45 118 -45 22 0 47 -4 54 -9 20 -12 103 6 123 27 9 11
29 28 44 40 35 28 36 85 1 104 -10 6 -15 16 -11 27 8 25 -103 50 -245 55 -63
2 -130 6 -147 9 -18 3 -33 3 -33 -1z"/>
<path d="M6627 6935 c-8 -8 -17 -12 -19 -9 -3 2 -11 -2 -17 -10 -19 -23 24 -9
45 15 20 22 12 26 -9 4z"/>
<path d="M6364 6884 c-18 -14 -18 -14 6 -3 31 14 36 19 24 19 -6 0 -19 -7 -30
-16z"/>
<path d="M6544 6884 c-18 -14 -18 -15 4 -4 12 6 22 13 22 15 0 8 -5 6 -26 -11z"/>
<path d="M6472 6845 c-7 -8 -9 -15 -4 -15 5 0 15 7 22 15 16 19 -1 19 -18 0z"/>
<path d="M6233 6755 c0 -8 4 -12 9 -9 5 3 6 10 3 15 -9 13 -12 11 -12 -6z"/>
<path d="M6010 6560 c-9 -6 -10 -10 -3 -10 6 0 15 5 18 10 8 12 4 12 -15 0z"/>
<path d="M5813 6453 c4 -3 -1 -12 -11 -19 -27 -21 0 -16 33 6 l30 20 -29 0
c-16 0 -26 -3 -23 -7z"/>
<path d="M13779 5683 c-13 -16 -12 -17 4 -4 9 7 17 15 17 17 0 8 -8 3 -21 -13z"/>
<path d="M4645 3859 c-4 -6 -5 -12 -2 -15 2 -3 7 2 10 11 7 17 1 20 -8 4z"/>
<path d="M3623 3192 c-24 -25 -43 -50 -43 -56 0 -12 68 52 82 77 17 33 4 26
-39 -21z"/>
<path d="M17010 1375 c0 -5 5 -17 10 -25 5 -8 10 -10 10 -5 0 6 -5 17 -10 25
-5 8 -10 11 -10 5z"/>
<path d="M4585 1546 c-63 -28 -98 -89 -110 -193 l-7 -63 84 0 84 0 18 109 c25
157 12 183 -69 147z"/>
</g>
</svg>
